SplineFontDB: 3.2
FontName: UrKittatLU
FullName: Ur-Kittat LU
FamilyName: Ur-Kittat LU
Weight: Regular
Copyright: CC-0 Lucy Universe
Version: 1.0
ItalicAngle: 0
UnderlinePosition: 74
UnderlineWidth: 49
Ascent: 1000
Descent: 0
InvalidEm: 0
sfntRevision: 0x00010000
LayerCount: 2
Layer: 0 1 "Back" 1
Layer: 1 1 "Fore" 0
XUID: [1021 764 -1482030943 16561]
StyleMap: 0x0040
FSType: 4
OS2Version: 2
OS2_WeightWidthSlopeOnly: 0
OS2_UseTypoMetrics: 0
CreationTime: 1595819819
ModificationTime: 1595822523
PfmFamily: 81
TTFWeight: 400
TTFWidth: 5
LineGap: 0
VLineGap: 0
Panose: 0 0 4 0 0 0 0 0 0 0
OS2TypoAscent: 1000
OS2TypoAOffset: 0
OS2TypoDescent: 0
OS2TypoDOffset: 0
OS2TypoLinegap: 0
OS2WinAscent: 1100
OS2WinAOffset: 0
OS2WinDescent: 0
OS2WinDOffset: 0
HheadAscent: 1100
HheadAOffset: 0
HheadDescent: 0
HheadDOffset: 0
OS2SubXSize: 500
OS2SubYSize: 500
OS2SubXOff: 0
OS2SubYOff: 0
OS2SupXSize: 500
OS2SupYSize: 500
OS2SupXOff: 0
OS2SupYOff: 500
OS2StrikeYSize: 50
OS2StrikeYPos: 200
OS2CapHeight: 1000
OS2XHeight: 1000
OS2Vendor: 'FSTR'
OS2CodePages: 00000001.00000000
OS2UnicodeRanges: 80000001.00000000.00000000.00000000
MarkAttachClasses: 1
DEI: 91125
ShortTable: maxp 16
  1
  0
  81
  32
  5
  0
  0
  2
  0
  0
  0
  0
  0
  0
  0
  0
EndShort
LangName: 1033 "" "" "" "UrKittatLu" "" "Version 1.0" "" "" "" "Lucy Universe" "" "" "" "Creative Commons CC0 Public Domain Dedication"
Encoding: UnicodeBmp
UnicodeInterp: none
NameList: AGL For New Fonts
DisplaySize: -72
AntiAlias: 1
FitToEm: 0
WinInfo: 0 25 10
BeginPrivate: 0
EndPrivate
BeginChars: 65539 80

StartChar: .notdef
Encoding: 65536 -1 0
Width: 600
Flags: W
LayerCount: 2
Fore
SplineSet
735 24 m 1,0,-1
 384 490 l 1,1,-1
 34 24 l 1,2,-1
 735 24 l 1,0,-1
24 34 m 1,3,-1
 375 500 l 1,4,-1
 24 966 l 1,5,-1
 24 34 l 1,6,-1
 24 34 l 1,3,-1
745 34 m 1,7,-1
 745 966 l 1,8,-1
 394 500 l 1,9,-1
 745 34 l 1,10,-1
 745 34 l 1,7,-1
384 509 m 1,11,-1
 735 976 l 1,12,-1
 34 976 l 1,13,-1
 384 509 l 1,14,-1
 384 509 l 1,11,-1
0 0 m 1,15,-1
 0 1000 l 1,16,-1
 769 1000 l 1,17,-1
 769 0 l 1,18,-1
 0 0 l 1,15,-1
EndSplineSet
EndChar

StartChar: exclam
Encoding: 33 33 4
Width: 600
Flags: W
LayerCount: 2
Fore
SplineSet
400 100 m 1,0,-1
 400 400 l 1,1,-1
 200 400 l 1,2,-1
 200 500 l 1,3,-1
 400 500 l 1,4,-1
 400 600 l 1,5,-1
 200 600 l 1,6,-1
 200 700 l 1,7,-1
 400 700 l 1,8,-1
 400 900 l 1,9,-1
 100 900 l 1,10,-1
 100 600 l 1,11,-1
 200 600 l 1,12,-1
 200 500 l 1,13,-1
 100 500 l 1,14,-1
 100 400 l 1,15,-1
 200 400 l 1,16,-1
 200 300 l 1,17,-1
 100 300 l 1,18,-1
 100 100 l 1,19,-1
 400 100 l 1,0,-1
0 0 m 1,20,-1
 0 1000 l 1,21,-1
 500 1000 l 1,22,-1
 500 0 l 1,23,-1
 0 0 l 1,20,-1
EndSplineSet
EndChar

StartChar: quotedbl
Encoding: 34 34 5
Width: 600
Flags: W
LayerCount: 2
Fore
SplineSet
0 0 m 1,0,-1
 0 100 l 1,1,-1
 500 100 l 1,2,-1
 500 0 l 1,3,-1
 0 0 l 1,0,-1
200 600 m 1,4,-1
 200 800 l 1,5,-1
 300 800 l 1,6,-1
 300 600 l 1,7,-1
 200 600 l 1,4,-1
100 800 m 1,8,-1
 100 900 l 1,9,-1
 0 900 l 1,10,-1
 0 1000 l 1,11,-1
 500 1000 l 1,12,-1
 500 900 l 1,13,-1
 400 900 l 1,14,-1
 400 800 l 1,15,-1
 300 800 l 1,16,-1
 300 900 l 1,17,-1
 200 900 l 1,18,-1
 200 800 l 1,19,-1
 100 800 l 1,8,-1
EndSplineSet
EndChar

StartChar: quotesingle
Encoding: 39 39 6
Width: 600
Flags: W
LayerCount: 2
Fore
SplineSet
0 0 m 1,0,-1
 0 100 l 1,1,-1
 500 100 l 1,2,-1
 500 0 l 1,3,-1
 0 0 l 1,0,-1
200 600 m 1,4,-1
 200 900 l 1,5,-1
 0 900 l 1,6,-1
 0 1000 l 1,7,-1
 500 1000 l 1,8,-1
 500 900 l 1,9,-1
 300 900 l 1,10,-1
 300 600 l 1,11,-1
 200 600 l 1,4,-1
EndSplineSet
EndChar

StartChar: comma
Encoding: 44 44 7
Width: 600
Flags: W
LayerCount: 2
Fore
SplineSet
0 0 m 1,0,-1
 0 100 l 1,1,-1
 200 100 l 1,2,-1
 200 300 l 1,3,-1
 300 300 l 1,4,-1
 300 100 l 1,5,-1
 500 100 l 1,6,-1
 500 0 l 1,7,-1
 0 0 l 1,0,-1
0 900 m 1,8,-1
 0 1000 l 1,9,-1
 500 1000 l 1,10,-1
 500 900 l 1,11,-1
 0 900 l 1,8,-1
EndSplineSet
EndChar

StartChar: hyphen
Encoding: 45 45 8
Width: 600
Flags: W
LayerCount: 2
Fore
SplineSet
400 100 m 1,0,-1
 400 400 l 1,1,-1
 100 400 l 1,2,-1
 100 100 l 1,3,-1
 400 100 l 1,0,-1
400 500 m 1,4,-1
 400 900 l 1,5,-1
 100 900 l 1,6,-1
 100 500 l 1,7,-1
 400 500 l 1,4,-1
0 0 m 1,8,-1
 0 1000 l 1,9,-1
 500 1000 l 1,10,-1
 500 0 l 1,11,-1
 0 0 l 1,8,-1
EndSplineSet
EndChar

StartChar: period
Encoding: 46 46 9
Width: 600
Flags: W
LayerCount: 2
Fore
SplineSet
0 0 m 1,0,-1
 0 100 l 1,1,-1
 100 100 l 1,2,-1
 100 300 l 1,3,-1
 200 300 l 1,4,-1
 200 100 l 1,5,-1
 300 100 l 1,6,-1
 300 300 l 1,7,-1
 400 300 l 1,8,-1
 400 100 l 1,9,-1
 500 100 l 1,10,-1
 500 0 l 1,11,-1
 0 0 l 1,0,-1
0 900 m 1,12,-1
 0 1000 l 1,13,-1
 500 1000 l 1,14,-1
 500 900 l 1,15,-1
 0 900 l 1,12,-1
EndSplineSet
EndChar

StartChar: zero
Encoding: 48 48 10
Width: 600
Flags: W
LayerCount: 2
Fore
SplineSet
0 0 m 1,0,-1
 0 100 l 1,1,-1
 500 100 l 1,2,-1
 500 0 l 1,3,-1
 0 0 l 1,0,-1
100 800 m 1,4,-1
 100 900 l 1,5,-1
 0 900 l 1,6,-1
 0 1000 l 1,7,-1
 500 1000 l 1,8,-1
 500 900 l 1,9,-1
 200 900 l 1,10,-1
 200 800 l 1,11,-1
 100 800 l 1,4,-1
EndSplineSet
EndChar

StartChar: one
Encoding: 49 49 11
Width: 600
Flags: W
LayerCount: 2
Fore
SplineSet
0 0 m 1,0,-1
 0 100 l 1,1,-1
 500 100 l 1,2,-1
 500 0 l 1,3,-1
 0 0 l 1,0,-1
100 800 m 1,4,-1
 100 900 l 1,5,-1
 0 900 l 1,6,-1
 0 1000 l 1,7,-1
 500 1000 l 1,8,-1
 500 900 l 1,9,-1
 400 900 l 1,10,-1
 400 800 l 1,11,-1
 300 800 l 1,12,-1
 300 900 l 1,13,-1
 200 900 l 1,14,-1
 200 800 l 1,15,-1
 100 800 l 1,4,-1
EndSplineSet
EndChar

StartChar: two
Encoding: 50 50 12
Width: 600
Flags: W
LayerCount: 2
Fore
SplineSet
0 0 m 1,0,-1
 0 100 l 1,1,-1
 500 100 l 1,2,-1
 500 0 l 1,3,-1
 0 0 l 1,0,-1
300 300 m 1,4,-1
 300 700 l 1,5,-1
 400 700 l 1,6,-1
 400 300 l 1,7,-1
 300 300 l 1,4,-1
100 800 m 1,8,-1
 100 900 l 1,9,-1
 0 900 l 1,10,-1
 0 1000 l 1,11,-1
 500 1000 l 1,12,-1
 500 900 l 1,13,-1
 400 900 l 1,14,-1
 400 800 l 1,15,-1
 300 800 l 1,16,-1
 300 900 l 1,17,-1
 200 900 l 1,18,-1
 200 800 l 1,19,-1
 100 800 l 1,8,-1
EndSplineSet
EndChar

StartChar: three
Encoding: 51 51 13
Width: 600
Flags: W
LayerCount: 2
Fore
SplineSet
0 0 m 1,0,-1
 0 100 l 1,1,-1
 300 100 l 1,2,-1
 300 200 l 1,3,-1
 400 200 l 1,4,-1
 400 100 l 1,5,-1
 500 100 l 1,6,-1
 500 0 l 1,7,-1
 0 0 l 1,0,-1
300 300 m 1,8,-1
 300 700 l 1,9,-1
 400 700 l 1,10,-1
 400 300 l 1,11,-1
 300 300 l 1,8,-1
100 800 m 1,12,-1
 100 900 l 1,13,-1
 0 900 l 1,14,-1
 0 1000 l 1,15,-1
 500 1000 l 1,16,-1
 500 900 l 1,17,-1
 400 900 l 1,18,-1
 400 800 l 1,19,-1
 300 800 l 1,20,-1
 300 900 l 1,21,-1
 200 900 l 1,22,-1
 200 800 l 1,23,-1
 100 800 l 1,12,-1
EndSplineSet
EndChar

StartChar: four
Encoding: 52 52 14
Width: 600
Flags: W
LayerCount: 2
Fore
SplineSet
0 0 m 1,0,-1
 0 100 l 1,1,-1
 500 100 l 1,2,-1
 500 0 l 1,3,-1
 0 0 l 1,0,-1
100 300 m 1,4,-1
 100 700 l 1,5,-1
 200 700 l 1,6,-1
 200 300 l 1,7,-1
 100 300 l 1,4,-1
100 800 m 1,8,-1
 100 900 l 1,9,-1
 0 900 l 1,10,-1
 0 1000 l 1,11,-1
 500 1000 l 1,12,-1
 500 900 l 1,13,-1
 400 900 l 1,14,-1
 400 800 l 1,15,-1
 300 800 l 1,16,-1
 300 900 l 1,17,-1
 200 900 l 1,18,-1
 200 800 l 1,19,-1
 100 800 l 1,8,-1
EndSplineSet
EndChar

StartChar: five
Encoding: 53 53 15
Width: 600
Flags: W
LayerCount: 2
Fore
SplineSet
0 0 m 1,0,-1
 0 100 l 1,1,-1
 500 100 l 1,2,-1
 500 0 l 1,3,-1
 0 0 l 1,0,-1
100 300 m 1,4,-1
 100 700 l 1,5,-1
 200 700 l 1,6,-1
 200 300 l 1,7,-1
 100 300 l 1,4,-1
300 300 m 1,8,-1
 300 700 l 1,9,-1
 400 700 l 1,10,-1
 400 300 l 1,11,-1
 300 300 l 1,8,-1
100 800 m 1,12,-1
 100 900 l 1,13,-1
 0 900 l 1,14,-1
 0 1000 l 1,15,-1
 500 1000 l 1,16,-1
 500 900 l 1,17,-1
 400 900 l 1,18,-1
 400 800 l 1,19,-1
 300 800 l 1,20,-1
 300 900 l 1,21,-1
 200 900 l 1,22,-1
 200 800 l 1,23,-1
 100 800 l 1,12,-1
EndSplineSet
EndChar

StartChar: six
Encoding: 54 54 16
Width: 600
Flags: W
LayerCount: 2
Fore
SplineSet
0 0 m 1,0,-1
 0 100 l 1,1,-1
 300 100 l 1,2,-1
 300 200 l 1,3,-1
 400 200 l 1,4,-1
 400 100 l 1,5,-1
 500 100 l 1,6,-1
 500 0 l 1,7,-1
 0 0 l 1,0,-1
100 300 m 1,8,-1
 100 700 l 1,9,-1
 200 700 l 1,10,-1
 200 300 l 1,11,-1
 100 300 l 1,8,-1
300 300 m 1,12,-1
 300 700 l 1,13,-1
 400 700 l 1,14,-1
 400 300 l 1,15,-1
 300 300 l 1,12,-1
100 800 m 1,16,-1
 100 900 l 1,17,-1
 0 900 l 1,18,-1
 0 1000 l 1,19,-1
 500 1000 l 1,20,-1
 500 900 l 1,21,-1
 400 900 l 1,22,-1
 400 800 l 1,23,-1
 300 800 l 1,24,-1
 300 900 l 1,25,-1
 200 900 l 1,26,-1
 200 800 l 1,27,-1
 100 800 l 1,16,-1
EndSplineSet
EndChar

StartChar: seven
Encoding: 55 55 17
Width: 600
Flags: W
LayerCount: 2
Fore
SplineSet
0 0 m 1,0,-1
 0 100 l 1,1,-1
 100 100 l 1,2,-1
 100 200 l 1,3,-1
 200 200 l 1,4,-1
 200 100 l 1,5,-1
 500 100 l 1,6,-1
 500 0 l 1,7,-1
 0 0 l 1,0,-1
100 300 m 1,8,-1
 100 700 l 1,9,-1
 200 700 l 1,10,-1
 200 300 l 1,11,-1
 100 300 l 1,8,-1
100 800 m 1,12,-1
 100 900 l 1,13,-1
 0 900 l 1,14,-1
 0 1000 l 1,15,-1
 500 1000 l 1,16,-1
 500 900 l 1,17,-1
 400 900 l 1,18,-1
 400 800 l 1,19,-1
 300 800 l 1,20,-1
 300 900 l 1,21,-1
 200 900 l 1,22,-1
 200 800 l 1,23,-1
 100 800 l 1,12,-1
EndSplineSet
EndChar

StartChar: eight
Encoding: 56 56 18
Width: 600
Flags: W
LayerCount: 2
Fore
SplineSet
0 0 m 1,0,-1
 0 100 l 1,1,-1
 100 100 l 1,2,-1
 100 200 l 1,3,-1
 200 200 l 1,4,-1
 200 100 l 1,5,-1
 500 100 l 1,6,-1
 500 0 l 1,7,-1
 0 0 l 1,0,-1
100 300 m 1,8,-1
 100 700 l 1,9,-1
 200 700 l 1,10,-1
 200 300 l 1,11,-1
 100 300 l 1,8,-1
300 300 m 1,12,-1
 300 700 l 1,13,-1
 400 700 l 1,14,-1
 400 300 l 1,15,-1
 300 300 l 1,12,-1
100 800 m 1,16,-1
 100 900 l 1,17,-1
 0 900 l 1,18,-1
 0 1000 l 1,19,-1
 500 1000 l 1,20,-1
 500 900 l 1,21,-1
 400 900 l 1,22,-1
 400 800 l 1,23,-1
 300 800 l 1,24,-1
 300 900 l 1,25,-1
 200 900 l 1,26,-1
 200 800 l 1,27,-1
 100 800 l 1,16,-1
EndSplineSet
EndChar

StartChar: nine
Encoding: 57 57 19
Width: 600
Flags: W
LayerCount: 2
Fore
SplineSet
0 0 m 1,0,-1
 0 100 l 1,1,-1
 100 100 l 1,2,-1
 100 200 l 1,3,-1
 200 200 l 1,4,-1
 200 100 l 1,5,-1
 300 100 l 1,6,-1
 300 200 l 1,7,-1
 400 200 l 1,8,-1
 400 100 l 1,9,-1
 500 100 l 1,10,-1
 500 0 l 1,11,-1
 0 0 l 1,0,-1
100 300 m 1,12,-1
 100 700 l 1,13,-1
 200 700 l 1,14,-1
 200 300 l 1,15,-1
 100 300 l 1,12,-1
300 300 m 1,16,-1
 300 700 l 1,17,-1
 400 700 l 1,18,-1
 400 300 l 1,19,-1
 300 300 l 1,16,-1
100 800 m 1,20,-1
 100 900 l 1,21,-1
 0 900 l 1,22,-1
 0 1000 l 1,23,-1
 500 1000 l 1,24,-1
 500 900 l 1,25,-1
 400 900 l 1,26,-1
 400 800 l 1,27,-1
 300 800 l 1,28,-1
 300 900 l 1,29,-1
 200 900 l 1,30,-1
 200 800 l 1,31,-1
 100 800 l 1,20,-1
EndSplineSet
EndChar

StartChar: colon
Encoding: 58 58 20
Width: 600
Flags: W
LayerCount: 2
Fore
SplineSet
300 200 m 1,0,-1
 300 300 l 1,1,-1
 400 300 l 1,2,-1
 400 200 l 1,3,-1
 300 200 l 1,0,-1
200 300 m 1,4,-1
 200 400 l 1,5,-1
 300 400 l 1,6,-1
 300 300 l 1,7,-1
 200 300 l 1,4,-1
0 0 m 1,8,-1
 0 1000 l 1,9,-1
 500 1000 l 1,10,-1
 500 900 l 1,11,-1
 100 900 l 1,12,-1
 100 500 l 1,13,-1
 200 500 l 1,14,-1
 200 400 l 1,15,-1
 100 400 l 1,16,-1
 100 100 l 1,17,-1
 400 100 l 1,18,-1
 400 200 l 1,19,-1
 500 200 l 1,20,-1
 500 0 l 1,21,-1
 0 0 l 1,8,-1
EndSplineSet
EndChar

StartChar: semicolon
Encoding: 59 59 21
Width: 600
Flags: W
LayerCount: 2
Fore
SplineSet
200 100 m 1,0,-1
 200 900 l 1,1,-1
 100 900 l 1,2,-1
 100 100 l 1,3,-1
 200 100 l 1,0,-1
400 100 m 1,4,-1
 400 900 l 1,5,-1
 300 900 l 1,6,-1
 300 100 l 1,7,-1
 400 100 l 1,4,-1
0 0 m 1,8,-1
 0 1000 l 1,9,-1
 500 1000 l 1,10,-1
 500 0 l 1,11,-1
 0 0 l 1,8,-1
EndSplineSet
EndChar

StartChar: question
Encoding: 63 63 22
Width: 600
Flags: W
LayerCount: 2
Fore
SplineSet
200 200 m 1,0,-1
 200 300 l 1,1,-1
 300 300 l 1,2,-1
 300 200 l 1,3,-1
 200 200 l 1,0,-1
0 0 m 1,4,-1
 0 200 l 1,5,-1
 200 200 l 1,6,-1
 200 100 l 1,7,-1
 400 100 l 1,8,-1
 400 300 l 1,9,-1
 300 300 l 1,10,-1
 300 700 l 1,11,-1
 400 700 l 1,12,-1
 400 900 l 1,13,-1
 200 900 l 1,14,-1
 200 800 l 1,15,-1
 300 800 l 1,16,-1
 300 700 l 1,17,-1
 100 700 l 1,18,-1
 100 500 l 1,19,-1
 0 500 l 1,20,-1
 0 1000 l 5,21,-1
 500 1000 l 1,22,-1
 500 0 l 1,23,-1
 0 0 l 1,4,-1
EndSplineSet
EndChar

StartChar: A
Encoding: 65 65 23
Width: 600
Flags: W
LayerCount: 2
Fore
SplineSet
0 0 m 1,0,-1
 0 200 l 1,1,-1
 100 200 l 1,2,-1
 100 100 l 1,3,-1
 200 100 l 1,4,-1
 200 200 l 1,5,-1
 100 200 l 1,6,-1
 100 300 l 1,7,-1
 200 300 l 1,8,-1
 200 900 l 1,9,-1
 0 900 l 1,10,-1
 0 1000 l 5,11,-1
 500 1000 l 1,12,-1
 500 900 l 1,13,-1
 300 900 l 1,14,-1
 300 300 l 1,15,-1
 400 300 l 1,16,-1
 400 200 l 1,17,-1
 300 200 l 1,18,-1
 300 100 l 1,19,-1
 400 100 l 1,20,-1
 400 200 l 1,21,-1
 500 200 l 1,22,-1
 500 0 l 1,23,-1
 0 0 l 1,0,-1
EndSplineSet
EndChar

StartChar: B
Encoding: 66 66 24
Width: 600
Flags: W
LayerCount: 2
Fore
SplineSet
300 300 m 1,0,-1
 300 400 l 1,1,-1
 400 400 l 1,2,-1
 400 300 l 1,3,-1
 300 300 l 1,0,-1
300 600 m 1,4,-1
 300 700 l 1,5,-1
 400 700 l 1,6,-1
 400 600 l 1,7,-1
 300 600 l 1,4,-1
0 0 m 1,8,-1
 0 1000 l 1,9,-1
 500 1000 l 1,10,-1
 500 900 l 1,11,-1
 100 900 l 1,12,-1
 100 500 l 1,13,-1
 300 500 l 1,14,-1
 300 400 l 1,15,-1
 100 400 l 1,16,-1
 100 100 l 1,17,-1
 400 100 l 1,18,-1
 400 300 l 1,19,-1
 500 300 l 1,20,-1
 500 0 l 1,21,-1
 0 0 l 1,8,-1
EndSplineSet
EndChar

StartChar: C
Encoding: 67 67 25
Width: 600
Flags: W
LayerCount: 2
Fore
SplineSet
200 200 m 1,0,-1
 200 300 l 1,1,-1
 300 300 l 1,2,-1
 300 200 l 1,3,-1
 200 200 l 1,0,-1
200 700 m 1,4,-1
 200 800 l 1,5,-1
 300 800 l 1,6,-1
 300 700 l 1,7,-1
 200 700 l 1,4,-1
300 100 m 1,8,-1
 300 200 l 1,9,-1
 400 200 l 1,10,-1
 400 800 l 1,11,-1
 300 800 l 1,12,-1
 300 900 l 1,13,-1
 100 900 l 1,14,-1
 100 700 l 1,15,-1
 200 700 l 1,16,-1
 200 300 l 1,17,-1
 100 300 l 1,18,-1
 100 100 l 1,19,-1
 300 100 l 1,8,-1
0 0 m 1,20,-1
 0 1000 l 1,21,-1
 500 1000 l 1,22,-1
 500 0 l 1,23,-1
 0 0 l 1,20,-1
EndSplineSet
EndChar

StartChar: D
Encoding: 68 68 26
Width: 600
Flags: W
LayerCount: 2
Fore
SplineSet
200 200 m 1,0,-1
 200 300 l 1,1,-1
 300 300 l 1,2,-1
 300 200 l 1,3,-1
 200 200 l 1,0,-1
200 700 m 1,4,-1
 200 800 l 1,5,-1
 300 800 l 1,6,-1
 300 700 l 1,7,-1
 200 700 l 1,4,-1
400 700 m 1,8,-1
 400 800 l 1,9,-1
 500 800 l 1,10,-1
 500 700 l 1,11,-1
 400 700 l 1,8,-1
0 0 m 1,12,-1
 0 1000 l 1,13,-1
 500 1000 l 1,14,-1
 500 900 l 1,15,-1
 200 900 l 1,16,-1
 200 800 l 1,17,-1
 100 800 l 1,18,-1
 100 200 l 1,19,-1
 200 200 l 1,20,-1
 200 100 l 1,21,-1
 400 100 l 1,22,-1
 400 300 l 1,23,-1
 300 300 l 1,24,-1
 300 700 l 1,25,-1
 400 700 l 1,26,-1
 400 500 l 1,27,-1
 500 500 l 1,28,-1
 500 0 l 1,29,-1
 0 0 l 1,12,-1
EndSplineSet
EndChar

StartChar: E
Encoding: 69 69 27
Width: 600
Flags: W
LayerCount: 2
Fore
SplineSet
200 200 m 1,0,-1
 200 300 l 1,1,-1
 300 300 l 1,2,-1
 300 200 l 1,3,-1
 200 200 l 1,0,-1
0 0 m 1,4,-1
 0 200 l 1,5,-1
 200 200 l 1,6,-1
 200 100 l 1,7,-1
 400 100 l 1,8,-1
 400 300 l 1,9,-1
 300 300 l 1,10,-1
 300 500 l 1,11,-1
 0 500 l 1,12,-1
 0 600 l 1,13,-1
 400 600 l 1,14,-1
 400 900 l 1,15,-1
 0 900 l 1,16,-1
 0 1000 l 1,17,-1
 500 1000 l 1,18,-1
 500 0 l 1,19,-1
 0 0 l 1,4,-1
EndSplineSet
EndChar

StartChar: F
Encoding: 70 70 28
Width: 600
Flags: W
LayerCount: 2
Fore
SplineSet
200 300 m 1,0,-1
 200 400 l 1,1,-1
 0 400 l 1,2,-1
 0 500 l 1,3,-1
 100 500 l 1,4,-1
 100 700 l 1,5,-1
 200 700 l 1,6,-1
 200 500 l 1,7,-1
 300 500 l 1,8,-1
 300 300 l 1,9,-1
 200 300 l 1,0,-1
0 0 m 1,10,-1
 0 100 l 1,11,-1
 300 100 l 1,12,-1
 300 300 l 1,13,-1
 400 300 l 1,14,-1
 400 900 l 1,15,-1
 100 900 l 1,16,-1
 100 700 l 1,17,-1
 0 700 l 1,18,-1
 0 1000 l 1,19,-1
 500 1000 l 1,20,-1
 500 0 l 1,21,-1
 0 0 l 1,10,-1
EndSplineSet
EndChar

StartChar: G
Encoding: 71 71 29
Width: 600
Flags: W
LayerCount: 2
Fore
SplineSet
200 400 m 1,0,-1
 200 500 l 1,1,-1
 300 500 l 1,2,-1
 300 400 l 1,3,-1
 200 400 l 1,0,-1
0 0 m 1,4,-1
 0 1000 l 1,5,-1
 500 1000 l 1,6,-1
 500 500 l 1,7,-1
 300 500 l 1,8,-1
 300 600 l 1,9,-1
 400 600 l 1,10,-1
 400 900 l 1,11,-1
 100 900 l 1,12,-1
 100 400 l 1,13,-1
 200 400 l 1,14,-1
 200 200 l 1,15,-1
 100 200 l 1,16,-1
 100 100 l 1,17,-1
 500 100 l 1,18,-1
 500 0 l 1,19,-1
 0 0 l 1,4,-1
EndSplineSet
EndChar

StartChar: H
Encoding: 72 72 30
Width: 600
Flags: W
LayerCount: 2
Fore
SplineSet
400 100 m 1,0,-1
 400 200 l 1,1,-1
 100 200 l 1,2,-1
 100 100 l 1,3,-1
 400 100 l 1,0,-1
400 300 m 1,4,-1
 400 900 l 1,5,-1
 100 900 l 1,6,-1
 100 300 l 1,7,-1
 200 300 l 1,8,-1
 200 400 l 1,9,-1
 300 400 l 1,10,-1
 300 300 l 1,11,-1
 400 300 l 1,4,-1
0 0 m 1,12,-1
 0 1000 l 1,13,-1
 500 1000 l 1,14,-1
 500 0 l 1,15,-1
 0 0 l 1,12,-1
EndSplineSet
EndChar

StartChar: I
Encoding: 73 73 31
Width: 600
Flags: W
LayerCount: 2
Fore
SplineSet
0 0 m 1,0,-1
 0 100 l 1,1,-1
 200 100 l 1,2,-1
 200 900 l 1,3,-1
 0 900 l 1,4,-1
 0 1000 l 1,5,-1
 500 1000 l 1,6,-1
 500 900 l 1,7,-1
 300 900 l 1,8,-1
 300 100 l 1,9,-1
 500 100 l 1,10,-1
 500 0 l 1,11,-1
 0 0 l 1,0,-1
EndSplineSet
EndChar

StartChar: J
Encoding: 74 74 32
Width: 600
Flags: W
LayerCount: 2
Fore
SplineSet
200 500 m 1,0,-1
 200 600 l 1,1,-1
 300 600 l 1,2,-1
 300 500 l 1,3,-1
 200 500 l 1,0,-1
0 0 m 1,4,-1
 0 500 l 1,5,-1
 200 500 l 1,6,-1
 200 400 l 1,7,-1
 100 400 l 1,8,-1
 100 100 l 1,9,-1
 400 100 l 1,10,-1
 400 600 l 1,11,-1
 300 600 l 1,12,-1
 300 800 l 1,13,-1
 400 800 l 1,14,-1
 400 900 l 1,15,-1
 0 900 l 1,16,-1
 0 1000 l 1,17,-1
 500 1000 l 1,18,-1
 500 0 l 1,19,-1
 0 0 l 1,4,-1
EndSplineSet
EndChar

StartChar: K
Encoding: 75 75 33
Width: 600
Flags: W
LayerCount: 2
Fore
SplineSet
100 300 m 1,0,-1
 100 400 l 1,1,-1
 200 400 l 1,2,-1
 200 300 l 1,3,-1
 100 300 l 1,0,-1
200 600 m 1,4,-1
 200 700 l 1,5,-1
 300 700 l 1,6,-1
 300 600 l 1,7,-1
 200 600 l 1,4,-1
100 700 m 1,8,-1
 100 800 l 1,9,-1
 200 800 l 1,10,-1
 200 700 l 1,11,-1
 100 700 l 1,8,-1
0 0 m 1,12,-1
 0 300 l 1,13,-1
 100 300 l 1,14,-1
 100 100 l 1,15,-1
 400 100 l 1,16,-1
 400 400 l 1,17,-1
 200 400 l 1,18,-1
 200 500 l 1,19,-1
 300 500 l 1,20,-1
 300 600 l 1,21,-1
 400 600 l 1,22,-1
 400 900 l 1,23,-1
 100 900 l 1,24,-1
 100 800 l 1,25,-1
 0 800 l 1,26,-1
 0 1000 l 1,27,-1
 500 1000 l 1,28,-1
 500 0 l 1,29,-1
 0 0 l 1,12,-1
EndSplineSet
EndChar

StartChar: L
Encoding: 76 76 34
Width: 600
Flags: W
LayerCount: 2
Fore
SplineSet
400 100 m 1,0,-1
 400 900 l 1,1,-1
 300 900 l 1,2,-1
 300 100 l 1,3,-1
 400 100 l 1,0,-1
0 0 m 1,4,-1
 0 100 l 1,5,-1
 200 100 l 1,6,-1
 200 900 l 1,7,-1
 0 900 l 1,8,-1
 0 1000 l 1,9,-1
 500 1000 l 1,10,-1
 500 0 l 1,11,-1
 0 0 l 1,4,-1
EndSplineSet
EndChar

StartChar: M
Encoding: 77 77 35
Width: 600
Flags: W
LayerCount: 2
Fore
SplineSet
400 400 m 1,0,-1
 400 600 l 1,1,-1
 300 600 l 1,2,-1
 300 400 l 1,3,-1
 400 400 l 1,0,-1
400 100 m 1,4,-1
 400 300 l 1,5,-1
 200 300 l 1,6,-1
 200 700 l 1,7,-1
 400 700 l 1,8,-1
 400 900 l 1,9,-1
 100 900 l 1,10,-1
 100 800 l 1,11,-1
 200 800 l 1,12,-1
 200 700 l 1,13,-1
 100 700 l 1,14,-1
 100 300 l 1,15,-1
 200 300 l 1,16,-1
 200 200 l 1,17,-1
 100 200 l 1,18,-1
 100 100 l 1,19,-1
 400 100 l 1,4,-1
0 0 m 1,20,-1
 0 1000 l 1,21,-1
 500 1000 l 1,22,-1
 500 0 l 1,23,-1
 0 0 l 1,20,-1
EndSplineSet
EndChar

StartChar: N
Encoding: 78 78 36
Width: 600
Flags: W
LayerCount: 2
Fore
SplineSet
200 400 m 1,0,-1
 200 500 l 1,1,-1
 300 500 l 1,2,-1
 300 400 l 1,3,-1
 200 400 l 1,0,-1
0 0 m 1,4,-1
 0 700 l 1,5,-1
 100 700 l 1,6,-1
 100 600 l 1,7,-1
 200 600 l 1,8,-1
 200 500 l 1,9,-1
 100 500 l 1,10,-1
 100 100 l 1,11,-1
 500 100 l 1,12,-1
 500 0 l 1,13,-1
 0 0 l 1,4,-1
300 300 m 1,14,-1
 300 400 l 1,15,-1
 400 400 l 1,16,-1
 400 900 l 1,17,-1
 0 900 l 1,18,-1
 0 1000 l 1,19,-1
 500 1000 l 1,20,-1
 500 300 l 1,21,-1
 300 300 l 1,14,-1
EndSplineSet
EndChar

StartChar: O
Encoding: 79 79 37
Width: 600
Flags: W
LayerCount: 2
Fore
SplineSet
200 300 m 1,0,-1
 200 400 l 1,1,-1
 300 400 l 1,2,-1
 300 300 l 1,3,-1
 200 300 l 1,0,-1
200 600 m 1,4,-1
 200 700 l 1,5,-1
 300 700 l 1,6,-1
 300 600 l 1,7,-1
 200 600 l 1,4,-1
300 100 m 1,8,-1
 300 300 l 1,9,-1
 400 300 l 1,10,-1
 400 700 l 1,11,-1
 300 700 l 1,12,-1
 300 900 l 1,13,-1
 200 900 l 1,14,-1
 200 700 l 1,15,-1
 100 700 l 1,16,-1
 100 300 l 1,17,-1
 200 300 l 1,18,-1
 200 100 l 1,19,-1
 300 100 l 1,8,-1
0 0 m 1,20,-1
 0 1000 l 1,21,-1
 500 1000 l 1,22,-1
 500 0 l 1,23,-1
 0 0 l 1,20,-1
EndSplineSet
EndChar

StartChar: P
Encoding: 80 80 38
Width: 600
Flags: W
LayerCount: 2
Fore
SplineSet
200 600 m 1,0,-1
 200 700 l 1,1,-1
 300 700 l 1,2,-1
 300 600 l 1,3,-1
 200 600 l 1,0,-1
400 100 m 1,4,-1
 400 700 l 1,5,-1
 300 700 l 1,6,-1
 300 900 l 1,7,-1
 100 900 l 1,8,-1
 100 600 l 1,9,-1
 200 600 l 1,10,-1
 200 500 l 1,11,-1
 100 500 l 1,12,-1
 100 100 l 1,13,-1
 400 100 l 1,4,-1
0 0 m 1,14,-1
 0 1000 l 1,15,-1
 500 1000 l 1,16,-1
 500 0 l 1,17,-1
 0 0 l 1,14,-1
EndSplineSet
EndChar

StartChar: Q
Encoding: 81 81 39
Width: 600
Flags: W
LayerCount: 2
Fore
SplineSet
400 100 m 1,0,-1
 400 300 l 1,1,-1
 300 300 l 1,2,-1
 300 400 l 1,3,-1
 400 400 l 1,4,-1
 400 600 l 1,5,-1
 300 600 l 1,6,-1
 300 700 l 1,7,-1
 400 700 l 1,8,-1
 400 900 l 1,9,-1
 200 900 l 1,10,-1
 200 800 l 1,11,-1
 300 800 l 1,12,-1
 300 700 l 1,13,-1
 200 700 l 1,14,-1
 200 300 l 1,15,-1
 300 300 l 1,16,-1
 300 200 l 1,17,-1
 200 200 l 1,18,-1
 200 100 l 1,19,-1
 400 100 l 1,0,-1
0 0 m 1,20,-1
 0 1000 l 1,21,-1
 500 1000 l 1,22,-1
 500 0 l 1,23,-1
 0 0 l 1,20,-1
EndSplineSet
EndChar

StartChar: R
Encoding: 82 82 40
Width: 600
Flags: W
LayerCount: 2
Fore
SplineSet
100 200 m 1,0,-1
 100 300 l 1,1,-1
 200 300 l 1,2,-1
 200 200 l 1,3,-1
 100 200 l 1,0,-1
200 300 m 1,4,-1
 200 400 l 1,5,-1
 300 400 l 1,6,-1
 300 300 l 1,7,-1
 200 300 l 1,4,-1
100 600 m 1,8,-1
 100 700 l 1,9,-1
 200 700 l 1,10,-1
 200 600 l 1,11,-1
 100 600 l 1,8,-1
0 0 m 1,12,-1
 0 200 l 1,13,-1
 100 200 l 1,14,-1
 100 100 l 1,15,-1
 400 100 l 1,16,-1
 400 400 l 1,17,-1
 300 400 l 1,18,-1
 300 500 l 1,19,-1
 200 500 l 1,20,-1
 200 600 l 1,21,-1
 400 600 l 1,22,-1
 400 900 l 1,23,-1
 100 900 l 1,24,-1
 100 700 l 1,25,-1
 0 700 l 1,26,-1
 0 1000 l 1,27,-1
 500 1000 l 1,28,-1
 500 0 l 1,29,-1
 0 0 l 1,12,-1
EndSplineSet
EndChar

StartChar: S
Encoding: 83 83 41
Width: 600
Flags: W
LayerCount: 2
Fore
SplineSet
200 300 m 1,0,-1
 200 500 l 1,1,-1
 300 500 l 1,2,-1
 300 300 l 1,3,-1
 200 300 l 1,0,-1
400 100 m 1,4,-1
 400 200 l 1,5,-1
 300 200 l 1,6,-1
 300 300 l 1,7,-1
 400 300 l 1,8,-1
 400 600 l 1,9,-1
 300 600 l 1,10,-1
 300 700 l 1,11,-1
 400 700 l 1,12,-1
 400 900 l 1,13,-1
 300 900 l 1,14,-1
 300 700 l 1,15,-1
 200 700 l 1,16,-1
 200 900 l 1,17,-1
 100 900 l 1,18,-1
 100 700 l 1,19,-1
 200 700 l 1,20,-1
 200 500 l 1,21,-1
 100 500 l 1,22,-1
 100 300 l 1,23,-1
 200 300 l 1,24,-1
 200 100 l 1,25,-1
 400 100 l 1,4,-1
0 0 m 1,26,-1
 0 1000 l 1,27,-1
 500 1000 l 1,28,-1
 500 0 l 1,29,-1
 0 0 l 1,26,-1
EndSplineSet
EndChar

StartChar: T
Encoding: 84 84 42
Width: 600
Flags: W
LayerCount: 2
Fore
SplineSet
200 100 m 1,0,-1
 200 200 l 1,1,-1
 100 200 l 1,2,-1
 100 100 l 1,3,-1
 200 100 l 1,0,-1
400 100 m 1,4,-1
 400 200 l 1,5,-1
 300 200 l 1,6,-1
 300 100 l 1,7,-1
 400 100 l 1,4,-1
0 0 m 1,8,-1
 0 400 l 1,9,-1
 100 400 l 1,10,-1
 100 300 l 1,11,-1
 200 300 l 1,12,-1
 200 900 l 1,13,-1
 0 900 l 1,14,-1
 0 1000 l 1,15,-1
 500 1000 l 1,16,-1
 500 900 l 1,17,-1
 300 900 l 1,18,-1
 300 300 l 1,19,-1
 400 300 l 1,20,-1
 400 400 l 1,21,-1
 500 400 l 1,22,-1
 500 0 l 1,23,-1
 0 0 l 1,8,-1
EndSplineSet
EndChar

StartChar: U
Encoding: 85 85 43
Width: 600
Flags: W
LayerCount: 2
Fore
SplineSet
200 400 m 1,0,-1
 200 600 l 1,1,-1
 300 600 l 1,2,-1
 300 400 l 1,3,-1
 200 400 l 1,0,-1
400 100 m 1,4,-1
 400 300 l 1,5,-1
 300 300 l 1,6,-1
 300 400 l 1,7,-1
 400 400 l 1,8,-1
 400 600 l 1,9,-1
 300 600 l 1,10,-1
 300 700 l 1,11,-1
 400 700 l 1,12,-1
 400 900 l 1,13,-1
 100 900 l 1,14,-1
 100 700 l 1,15,-1
 200 700 l 1,16,-1
 200 600 l 1,17,-1
 100 600 l 1,18,-1
 100 400 l 1,19,-1
 200 400 l 1,20,-1
 200 300 l 1,21,-1
 100 300 l 1,22,-1
 100 100 l 1,23,-1
 400 100 l 1,4,-1
0 0 m 1,24,-1
 0 1000 l 1,25,-1
 500 1000 l 1,26,-1
 500 0 l 1,27,-1
 0 0 l 1,24,-1
EndSplineSet
EndChar

StartChar: V
Encoding: 86 86 44
Width: 600
Flags: W
LayerCount: 2
Fore
SplineSet
0 0 m 1,0,-1
 0 1000 l 1,1,-1
 500 1000 l 1,2,-1
 500 900 l 1,3,-1
 100 900 l 1,4,-1
 100 400 l 1,5,-1
 200 400 l 1,6,-1
 200 300 l 1,7,-1
 100 300 l 1,8,-1
 100 100 l 1,9,-1
 200 100 l 1,10,-1
 200 300 l 1,11,-1
 300 300 l 1,12,-1
 300 100 l 1,13,-1
 400 100 l 1,14,-1
 400 300 l 1,15,-1
 300 300 l 1,16,-1
 300 400 l 1,17,-1
 500 400 l 1,18,-1
 500 0 l 1,19,-1
 0 0 l 1,0,-1
EndSplineSet
EndChar

StartChar: W
Encoding: 87 87 45
Width: 600
Flags: W
LayerCount: 2
Fore
SplineSet
200 100 m 1,0,-1
 200 200 l 1,1,-1
 100 200 l 1,2,-1
 100 100 l 1,3,-1
 200 100 l 1,0,-1
400 100 m 1,4,-1
 400 200 l 1,5,-1
 300 200 l 1,6,-1
 300 100 l 1,7,-1
 400 100 l 1,4,-1
200 300 m 1,8,-1
 200 900 l 1,9,-1
 100 900 l 1,10,-1
 100 300 l 1,11,-1
 200 300 l 1,8,-1
400 300 m 1,12,-1
 400 900 l 1,13,-1
 300 900 l 1,14,-1
 300 300 l 1,15,-1
 400 300 l 1,12,-1
0 0 m 1,16,-1
 0 1000 l 1,17,-1
 500 1000 l 1,18,-1
 500 0 l 1,19,-1
 0 0 l 1,16,-1
EndSplineSet
EndChar

StartChar: X
Encoding: 88 88 46
Width: 600
Flags: W
LayerCount: 2
Fore
SplineSet
200 200 m 1,0,-1
 200 300 l 1,1,-1
 300 300 l 1,2,-1
 300 200 l 1,3,-1
 200 200 l 1,0,-1
200 700 m 1,4,-1
 200 800 l 1,5,-1
 300 800 l 1,6,-1
 300 700 l 1,7,-1
 200 700 l 1,4,-1
400 100 m 1,8,-1
 400 300 l 1,9,-1
 300 300 l 1,10,-1
 300 400 l 1,11,-1
 400 400 l 1,12,-1
 400 600 l 1,13,-1
 300 600 l 1,14,-1
 300 700 l 1,15,-1
 400 700 l 1,16,-1
 400 900 l 1,17,-1
 200 900 l 1,18,-1
 200 800 l 1,19,-1
 100 800 l 1,20,-1
 100 200 l 1,21,-1
 200 200 l 1,22,-1
 200 100 l 1,23,-1
 400 100 l 1,8,-1
0 0 m 1,24,-1
 0 1000 l 1,25,-1
 500 1000 l 1,26,-1
 500 0 l 1,27,-1
 0 0 l 1,24,-1
EndSplineSet
EndChar

StartChar: Y
Encoding: 89 89 47
Width: 600
Flags: W
LayerCount: 2
Fore
SplineSet
300 700 m 1,0,-1
 300 800 l 1,1,-1
 400 800 l 1,2,-1
 400 700 l 1,3,-1
 300 700 l 1,0,-1
0 0 m 1,4,-1
 0 1000 l 1,5,-1
 500 1000 l 1,6,-1
 500 800 l 1,7,-1
 400 800 l 1,8,-1
 400 900 l 1,9,-1
 100 900 l 1,10,-1
 100 800 l 1,11,-1
 200 800 l 1,12,-1
 200 700 l 1,13,-1
 100 700 l 1,14,-1
 100 100 l 1,15,-1
 200 100 l 1,16,-1
 200 700 l 1,17,-1
 300 700 l 1,18,-1
 300 100 l 1,19,-1
 500 100 l 1,20,-1
 500 0 l 1,21,-1
 0 0 l 1,4,-1
EndSplineSet
EndChar

StartChar: Z
Encoding: 90 90 48
Width: 600
Flags: W
LayerCount: 2
Fore
SplineSet
200 700 m 1,0,-1
 200 800 l 1,1,-1
 300 800 l 1,2,-1
 300 700 l 1,3,-1
 200 700 l 1,0,-1
400 100 m 1,4,-1
 400 900 l 1,5,-1
 100 900 l 1,6,-1
 100 500 l 1,7,-1
 200 500 l 1,8,-1
 200 600 l 1,9,-1
 300 600 l 1,10,-1
 300 100 l 1,11,-1
 400 100 l 1,4,-1
0 0 m 1,12,-1
 0 100 l 1,13,-1
 200 100 l 1,14,-1
 200 400 l 1,15,-1
 100 400 l 1,16,-1
 100 300 l 1,17,-1
 0 300 l 1,18,-1
 0 1000 l 1,19,-1
 500 1000 l 1,20,-1
 500 0 l 1,21,-1
 0 0 l 1,12,-1
EndSplineSet
EndChar

StartChar: underscore
Encoding: 95 95 49
Width: 600
Flags: W
LayerCount: 2
Fore
SplineSet
0 0 m 1,0,-1
 0 100 l 1,1,-1
 500 100 l 1,2,-1
 500 0 l 1,3,-1
 0 0 l 1,0,-1
0 900 m 1,4,-1
 0 1000 l 1,5,-1
 500 1000 l 1,6,-1
 500 900 l 1,7,-1
 0 900 l 1,4,-1
EndSplineSet
EndChar

StartChar: a
Encoding: 97 97 50
Width: 600
Flags: W
LayerCount: 2
Fore
SplineSet
0 0 m 1,0,-1
 0 200 l 1,1,-1
 100 200 l 1,2,-1
 100 100 l 1,3,-1
 200 100 l 1,4,-1
 200 200 l 1,5,-1
 100 200 l 1,6,-1
 100 300 l 1,7,-1
 200 300 l 1,8,-1
 200 900 l 1,9,-1
 0 900 l 1,10,-1
 0 1000 l 1,11,-1
 500 1000 l 1,12,-1
 500 900 l 1,13,-1
 300 900 l 1,14,-1
 300 300 l 1,15,-1
 400 300 l 1,16,-1
 400 200 l 1,17,-1
 300 200 l 1,18,-1
 300 100 l 1,19,-1
 400 100 l 1,20,-1
 400 200 l 1,21,-1
 500 200 l 1,22,-1
 500 0 l 1,23,-1
 0 0 l 1,0,-1
EndSplineSet
EndChar

StartChar: b
Encoding: 98 98 51
Width: 600
Flags: W
LayerCount: 2
Fore
SplineSet
300 300 m 1,0,-1
 300 400 l 1,1,-1
 400 400 l 1,2,-1
 400 300 l 1,3,-1
 300 300 l 1,0,-1
300 600 m 1,4,-1
 300 700 l 1,5,-1
 400 700 l 1,6,-1
 400 600 l 1,7,-1
 300 600 l 1,4,-1
0 0 m 1,8,-1
 0 1000 l 1,9,-1
 500 1000 l 1,10,-1
 500 900 l 1,11,-1
 100 900 l 1,12,-1
 100 500 l 1,13,-1
 300 500 l 1,14,-1
 300 400 l 1,15,-1
 100 400 l 1,16,-1
 100 100 l 1,17,-1
 400 100 l 1,18,-1
 400 300 l 1,19,-1
 500 300 l 1,20,-1
 500 0 l 1,21,-1
 0 0 l 1,8,-1
EndSplineSet
EndChar

StartChar: c
Encoding: 99 99 52
Width: 600
Flags: W
LayerCount: 2
Fore
SplineSet
200 200 m 1,0,-1
 200 300 l 1,1,-1
 300 300 l 1,2,-1
 300 200 l 1,3,-1
 200 200 l 1,0,-1
200 700 m 1,4,-1
 200 800 l 1,5,-1
 300 800 l 1,6,-1
 300 700 l 1,7,-1
 200 700 l 1,4,-1
300 100 m 1,8,-1
 300 200 l 1,9,-1
 400 200 l 1,10,-1
 400 800 l 1,11,-1
 300 800 l 1,12,-1
 300 900 l 1,13,-1
 100 900 l 1,14,-1
 100 700 l 1,15,-1
 200 700 l 1,16,-1
 200 300 l 1,17,-1
 100 300 l 1,18,-1
 100 100 l 1,19,-1
 300 100 l 1,8,-1
0 0 m 1,20,-1
 0 1000 l 1,21,-1
 500 1000 l 1,22,-1
 500 0 l 1,23,-1
 0 0 l 1,20,-1
EndSplineSet
EndChar

StartChar: d
Encoding: 100 100 53
Width: 600
Flags: W
LayerCount: 2
Fore
SplineSet
200 200 m 1,0,-1
 200 300 l 1,1,-1
 300 300 l 1,2,-1
 300 200 l 1,3,-1
 200 200 l 1,0,-1
200 700 m 1,4,-1
 200 800 l 1,5,-1
 300 800 l 1,6,-1
 300 700 l 1,7,-1
 200 700 l 1,4,-1
400 700 m 1,8,-1
 400 800 l 1,9,-1
 500 800 l 1,10,-1
 500 700 l 1,11,-1
 400 700 l 1,8,-1
0 0 m 1,12,-1
 0 1000 l 1,13,-1
 500 1000 l 1,14,-1
 500 900 l 1,15,-1
 200 900 l 1,16,-1
 200 800 l 1,17,-1
 100 800 l 1,18,-1
 100 200 l 1,19,-1
 200 200 l 1,20,-1
 200 100 l 1,21,-1
 400 100 l 1,22,-1
 400 300 l 1,23,-1
 300 300 l 1,24,-1
 300 700 l 1,25,-1
 400 700 l 1,26,-1
 400 500 l 1,27,-1
 500 500 l 1,28,-1
 500 0 l 1,29,-1
 0 0 l 1,12,-1
EndSplineSet
EndChar

StartChar: e
Encoding: 101 101 54
Width: 600
Flags: W
LayerCount: 2
Fore
SplineSet
200 200 m 1,0,-1
 200 300 l 1,1,-1
 300 300 l 1,2,-1
 300 200 l 1,3,-1
 200 200 l 1,0,-1
0 0 m 1,4,-1
 0 200 l 1,5,-1
 200 200 l 1,6,-1
 200 100 l 1,7,-1
 400 100 l 1,8,-1
 400 300 l 1,9,-1
 300 300 l 1,10,-1
 300 500 l 1,11,-1
 0 500 l 1,12,-1
 0 600 l 1,13,-1
 400 600 l 1,14,-1
 400 900 l 1,15,-1
 0 900 l 1,16,-1
 0 1000 l 1,17,-1
 500 1000 l 1,18,-1
 500 0 l 1,19,-1
 0 0 l 1,4,-1
EndSplineSet
EndChar

StartChar: f
Encoding: 102 102 55
Width: 600
Flags: W
LayerCount: 2
Fore
SplineSet
200 300 m 1,0,-1
 200 400 l 1,1,-1
 0 400 l 1,2,-1
 0 500 l 1,3,-1
 100 500 l 1,4,-1
 100 700 l 1,5,-1
 200 700 l 1,6,-1
 200 500 l 1,7,-1
 300 500 l 1,8,-1
 300 300 l 1,9,-1
 200 300 l 1,0,-1
0 0 m 1,10,-1
 0 100 l 1,11,-1
 300 100 l 1,12,-1
 300 300 l 1,13,-1
 400 300 l 1,14,-1
 400 900 l 1,15,-1
 100 900 l 1,16,-1
 100 700 l 1,17,-1
 0 700 l 1,18,-1
 0 1000 l 1,19,-1
 500 1000 l 1,20,-1
 500 0 l 1,21,-1
 0 0 l 1,10,-1
EndSplineSet
EndChar

StartChar: g
Encoding: 103 103 56
Width: 600
Flags: W
LayerCount: 2
Fore
SplineSet
200 400 m 1,0,-1
 200 500 l 1,1,-1
 300 500 l 1,2,-1
 300 400 l 1,3,-1
 200 400 l 1,0,-1
0 0 m 1,4,-1
 0 1000 l 1,5,-1
 500 1000 l 1,6,-1
 500 500 l 1,7,-1
 300 500 l 1,8,-1
 300 600 l 1,9,-1
 400 600 l 1,10,-1
 400 900 l 1,11,-1
 100 900 l 1,12,-1
 100 400 l 1,13,-1
 200 400 l 1,14,-1
 200 200 l 1,15,-1
 100 200 l 1,16,-1
 100 100 l 1,17,-1
 500 100 l 1,18,-1
 500 0 l 1,19,-1
 0 0 l 1,4,-1
EndSplineSet
EndChar

StartChar: h
Encoding: 104 104 57
Width: 600
Flags: W
LayerCount: 2
Fore
SplineSet
400 100 m 1,0,-1
 400 200 l 1,1,-1
 100 200 l 1,2,-1
 100 100 l 1,3,-1
 400 100 l 1,0,-1
400 300 m 1,4,-1
 400 900 l 1,5,-1
 100 900 l 1,6,-1
 100 300 l 1,7,-1
 200 300 l 1,8,-1
 200 400 l 1,9,-1
 300 400 l 1,10,-1
 300 300 l 1,11,-1
 400 300 l 1,4,-1
0 0 m 1,12,-1
 0 1000 l 1,13,-1
 500 1000 l 1,14,-1
 500 0 l 1,15,-1
 0 0 l 1,12,-1
EndSplineSet
EndChar

StartChar: i
Encoding: 105 105 58
Width: 600
Flags: W
LayerCount: 2
Fore
SplineSet
0 0 m 1,0,-1
 0 100 l 1,1,-1
 200 100 l 1,2,-1
 200 900 l 1,3,-1
 0 900 l 1,4,-1
 0 1000 l 1,5,-1
 500 1000 l 1,6,-1
 500 900 l 1,7,-1
 300 900 l 1,8,-1
 300 100 l 1,9,-1
 500 100 l 1,10,-1
 500 0 l 1,11,-1
 0 0 l 1,0,-1
EndSplineSet
EndChar

StartChar: j
Encoding: 106 106 59
Width: 600
Flags: W
LayerCount: 2
Fore
SplineSet
200 500 m 1,0,-1
 200 600 l 1,1,-1
 300 600 l 1,2,-1
 300 500 l 1,3,-1
 200 500 l 1,0,-1
0 0 m 1,4,-1
 0 500 l 1,5,-1
 200 500 l 1,6,-1
 200 400 l 1,7,-1
 100 400 l 1,8,-1
 100 100 l 1,9,-1
 400 100 l 1,10,-1
 400 600 l 1,11,-1
 300 600 l 1,12,-1
 300 800 l 1,13,-1
 400 800 l 1,14,-1
 400 900 l 1,15,-1
 0 900 l 1,16,-1
 0 1000 l 1,17,-1
 500 1000 l 1,18,-1
 500 0 l 1,19,-1
 0 0 l 1,4,-1
EndSplineSet
EndChar

StartChar: k
Encoding: 107 107 60
Width: 600
Flags: W
LayerCount: 2
Fore
SplineSet
100 300 m 1,0,-1
 100 400 l 1,1,-1
 200 400 l 1,2,-1
 200 300 l 1,3,-1
 100 300 l 1,0,-1
200 600 m 1,4,-1
 200 700 l 1,5,-1
 300 700 l 1,6,-1
 300 600 l 1,7,-1
 200 600 l 1,4,-1
100 700 m 1,8,-1
 100 800 l 1,9,-1
 200 800 l 1,10,-1
 200 700 l 1,11,-1
 100 700 l 1,8,-1
0 0 m 1,12,-1
 0 300 l 1,13,-1
 100 300 l 1,14,-1
 100 100 l 1,15,-1
 400 100 l 1,16,-1
 400 400 l 1,17,-1
 200 400 l 1,18,-1
 200 500 l 1,19,-1
 300 500 l 1,20,-1
 300 600 l 1,21,-1
 400 600 l 1,22,-1
 400 900 l 1,23,-1
 100 900 l 1,24,-1
 100 800 l 1,25,-1
 0 800 l 1,26,-1
 0 1000 l 1,27,-1
 500 1000 l 1,28,-1
 500 0 l 1,29,-1
 0 0 l 1,12,-1
EndSplineSet
EndChar

StartChar: l
Encoding: 108 108 61
Width: 600
Flags: W
LayerCount: 2
Fore
SplineSet
400 100 m 1,0,-1
 400 900 l 1,1,-1
 300 900 l 1,2,-1
 300 100 l 1,3,-1
 400 100 l 1,0,-1
0 0 m 1,4,-1
 0 100 l 1,5,-1
 200 100 l 1,6,-1
 200 900 l 1,7,-1
 0 900 l 1,8,-1
 0 1000 l 1,9,-1
 500 1000 l 1,10,-1
 500 0 l 1,11,-1
 0 0 l 1,4,-1
EndSplineSet
EndChar

StartChar: m
Encoding: 109 109 62
Width: 600
Flags: W
LayerCount: 2
Fore
SplineSet
400 400 m 1,0,-1
 400 600 l 1,1,-1
 300 600 l 1,2,-1
 300 400 l 1,3,-1
 400 400 l 1,0,-1
400 100 m 1,4,-1
 400 300 l 1,5,-1
 200 300 l 1,6,-1
 200 700 l 1,7,-1
 400 700 l 1,8,-1
 400 900 l 1,9,-1
 100 900 l 1,10,-1
 100 800 l 1,11,-1
 200 800 l 1,12,-1
 200 700 l 1,13,-1
 100 700 l 1,14,-1
 100 300 l 1,15,-1
 200 300 l 1,16,-1
 200 200 l 1,17,-1
 100 200 l 1,18,-1
 100 100 l 1,19,-1
 400 100 l 1,4,-1
0 0 m 1,20,-1
 0 1000 l 1,21,-1
 500 1000 l 1,22,-1
 500 0 l 1,23,-1
 0 0 l 1,20,-1
EndSplineSet
EndChar

StartChar: n
Encoding: 110 110 63
Width: 600
Flags: W
LayerCount: 2
Fore
SplineSet
200 400 m 1,0,-1
 200 500 l 1,1,-1
 300 500 l 1,2,-1
 300 400 l 1,3,-1
 200 400 l 1,0,-1
0 0 m 1,4,-1
 0 700 l 1,5,-1
 100 700 l 1,6,-1
 100 600 l 1,7,-1
 200 600 l 1,8,-1
 200 500 l 1,9,-1
 100 500 l 1,10,-1
 100 100 l 1,11,-1
 500 100 l 1,12,-1
 500 0 l 1,13,-1
 0 0 l 1,4,-1
300 300 m 1,14,-1
 300 400 l 1,15,-1
 400 400 l 1,16,-1
 400 900 l 1,17,-1
 0 900 l 1,18,-1
 0 1000 l 1,19,-1
 500 1000 l 1,20,-1
 500 300 l 1,21,-1
 300 300 l 1,14,-1
EndSplineSet
EndChar

StartChar: o
Encoding: 111 111 64
Width: 600
Flags: W
LayerCount: 2
Fore
SplineSet
200 300 m 1,0,-1
 200 400 l 1,1,-1
 300 400 l 1,2,-1
 300 300 l 1,3,-1
 200 300 l 1,0,-1
200 600 m 1,4,-1
 200 700 l 1,5,-1
 300 700 l 1,6,-1
 300 600 l 1,7,-1
 200 600 l 1,4,-1
300 100 m 1,8,-1
 300 300 l 1,9,-1
 400 300 l 1,10,-1
 400 700 l 1,11,-1
 300 700 l 1,12,-1
 300 900 l 1,13,-1
 200 900 l 1,14,-1
 200 700 l 1,15,-1
 100 700 l 1,16,-1
 100 300 l 1,17,-1
 200 300 l 1,18,-1
 200 100 l 1,19,-1
 300 100 l 1,8,-1
0 0 m 1,20,-1
 0 1000 l 1,21,-1
 500 1000 l 1,22,-1
 500 0 l 1,23,-1
 0 0 l 1,20,-1
EndSplineSet
EndChar

StartChar: p
Encoding: 112 112 65
Width: 600
Flags: W
LayerCount: 2
Fore
SplineSet
200 600 m 1,0,-1
 200 700 l 1,1,-1
 300 700 l 1,2,-1
 300 600 l 1,3,-1
 200 600 l 1,0,-1
400 100 m 1,4,-1
 400 700 l 1,5,-1
 300 700 l 1,6,-1
 300 900 l 1,7,-1
 100 900 l 1,8,-1
 100 600 l 1,9,-1
 200 600 l 1,10,-1
 200 500 l 1,11,-1
 100 500 l 1,12,-1
 100 100 l 1,13,-1
 400 100 l 1,4,-1
0 0 m 1,14,-1
 0 1000 l 1,15,-1
 500 1000 l 1,16,-1
 500 0 l 1,17,-1
 0 0 l 1,14,-1
EndSplineSet
EndChar

StartChar: q
Encoding: 113 113 66
Width: 600
Flags: W
LayerCount: 2
Fore
SplineSet
400 100 m 1,0,-1
 400 300 l 1,1,-1
 300 300 l 1,2,-1
 300 400 l 1,3,-1
 400 400 l 1,4,-1
 400 600 l 1,5,-1
 300 600 l 1,6,-1
 300 700 l 1,7,-1
 400 700 l 1,8,-1
 400 900 l 1,9,-1
 200 900 l 1,10,-1
 200 800 l 1,11,-1
 300 800 l 1,12,-1
 300 700 l 1,13,-1
 200 700 l 1,14,-1
 200 300 l 1,15,-1
 300 300 l 1,16,-1
 300 200 l 1,17,-1
 200 200 l 1,18,-1
 200 100 l 1,19,-1
 400 100 l 1,0,-1
0 0 m 1,20,-1
 0 1000 l 1,21,-1
 500 1000 l 1,22,-1
 500 0 l 1,23,-1
 0 0 l 1,20,-1
EndSplineSet
EndChar

StartChar: r
Encoding: 114 114 67
Width: 600
Flags: W
LayerCount: 2
Fore
SplineSet
100 200 m 1,0,-1
 100 300 l 1,1,-1
 200 300 l 1,2,-1
 200 200 l 1,3,-1
 100 200 l 1,0,-1
200 300 m 1,4,-1
 200 400 l 1,5,-1
 300 400 l 1,6,-1
 300 300 l 1,7,-1
 200 300 l 1,4,-1
100 600 m 1,8,-1
 100 700 l 1,9,-1
 200 700 l 1,10,-1
 200 600 l 1,11,-1
 100 600 l 1,8,-1
0 0 m 1,12,-1
 0 200 l 1,13,-1
 100 200 l 1,14,-1
 100 100 l 1,15,-1
 400 100 l 1,16,-1
 400 400 l 1,17,-1
 300 400 l 1,18,-1
 300 500 l 1,19,-1
 200 500 l 1,20,-1
 200 600 l 1,21,-1
 400 600 l 1,22,-1
 400 900 l 1,23,-1
 100 900 l 1,24,-1
 100 700 l 1,25,-1
 0 700 l 1,26,-1
 0 1000 l 1,27,-1
 500 1000 l 1,28,-1
 500 0 l 1,29,-1
 0 0 l 1,12,-1
EndSplineSet
EndChar

StartChar: s
Encoding: 115 115 68
Width: 600
Flags: W
LayerCount: 2
Fore
SplineSet
200 300 m 1,0,-1
 200 500 l 1,1,-1
 300 500 l 1,2,-1
 300 300 l 1,3,-1
 200 300 l 1,0,-1
400 100 m 1,4,-1
 400 200 l 1,5,-1
 300 200 l 1,6,-1
 300 300 l 1,7,-1
 400 300 l 1,8,-1
 400 600 l 1,9,-1
 300 600 l 1,10,-1
 300 700 l 1,11,-1
 400 700 l 1,12,-1
 400 900 l 1,13,-1
 300 900 l 1,14,-1
 300 700 l 1,15,-1
 200 700 l 1,16,-1
 200 900 l 1,17,-1
 100 900 l 1,18,-1
 100 700 l 1,19,-1
 200 700 l 1,20,-1
 200 500 l 1,21,-1
 100 500 l 1,22,-1
 100 300 l 1,23,-1
 200 300 l 1,24,-1
 200 100 l 1,25,-1
 400 100 l 1,4,-1
0 0 m 1,26,-1
 0 1000 l 1,27,-1
 500 1000 l 1,28,-1
 500 0 l 1,29,-1
 0 0 l 1,26,-1
EndSplineSet
EndChar

StartChar: t
Encoding: 116 116 69
Width: 600
Flags: W
LayerCount: 2
Fore
SplineSet
200 100 m 1,0,-1
 200 200 l 1,1,-1
 100 200 l 1,2,-1
 100 100 l 1,3,-1
 200 100 l 1,0,-1
400 100 m 1,4,-1
 400 200 l 1,5,-1
 300 200 l 1,6,-1
 300 100 l 1,7,-1
 400 100 l 1,4,-1
0 0 m 1,8,-1
 0 400 l 1,9,-1
 100 400 l 1,10,-1
 100 300 l 1,11,-1
 200 300 l 1,12,-1
 200 900 l 1,13,-1
 0 900 l 1,14,-1
 0 1000 l 1,15,-1
 500 1000 l 1,16,-1
 500 900 l 1,17,-1
 300 900 l 1,18,-1
 300 300 l 1,19,-1
 400 300 l 1,20,-1
 400 400 l 1,21,-1
 500 400 l 1,22,-1
 500 0 l 1,23,-1
 0 0 l 1,8,-1
EndSplineSet
EndChar

StartChar: u
Encoding: 117 117 70
Width: 600
Flags: W
LayerCount: 2
Fore
SplineSet
200 400 m 1,0,-1
 200 600 l 1,1,-1
 300 600 l 1,2,-1
 300 400 l 1,3,-1
 200 400 l 1,0,-1
400 100 m 1,4,-1
 400 300 l 1,5,-1
 300 300 l 1,6,-1
 300 400 l 1,7,-1
 400 400 l 1,8,-1
 400 600 l 1,9,-1
 300 600 l 1,10,-1
 300 700 l 1,11,-1
 400 700 l 1,12,-1
 400 900 l 1,13,-1
 100 900 l 1,14,-1
 100 700 l 1,15,-1
 200 700 l 1,16,-1
 200 600 l 1,17,-1
 100 600 l 1,18,-1
 100 400 l 1,19,-1
 200 400 l 1,20,-1
 200 300 l 1,21,-1
 100 300 l 1,22,-1
 100 100 l 1,23,-1
 400 100 l 1,4,-1
0 0 m 1,24,-1
 0 1000 l 1,25,-1
 500 1000 l 1,26,-1
 500 0 l 1,27,-1
 0 0 l 1,24,-1
EndSplineSet
EndChar

StartChar: v
Encoding: 118 118 71
Width: 600
Flags: W
LayerCount: 2
Fore
SplineSet
0 0 m 1,0,-1
 0 1000 l 1,1,-1
 500 1000 l 1,2,-1
 500 900 l 1,3,-1
 100 900 l 1,4,-1
 100 400 l 1,5,-1
 200 400 l 1,6,-1
 200 300 l 1,7,-1
 100 300 l 1,8,-1
 100 100 l 1,9,-1
 200 100 l 1,10,-1
 200 300 l 1,11,-1
 300 300 l 1,12,-1
 300 100 l 1,13,-1
 400 100 l 1,14,-1
 400 300 l 1,15,-1
 300 300 l 1,16,-1
 300 400 l 1,17,-1
 500 400 l 1,18,-1
 500 0 l 1,19,-1
 0 0 l 1,0,-1
EndSplineSet
EndChar

StartChar: w
Encoding: 119 119 72
Width: 600
Flags: W
LayerCount: 2
Fore
SplineSet
200 100 m 1,0,-1
 200 200 l 1,1,-1
 100 200 l 1,2,-1
 100 100 l 1,3,-1
 200 100 l 1,0,-1
400 100 m 1,4,-1
 400 200 l 1,5,-1
 300 200 l 1,6,-1
 300 100 l 1,7,-1
 400 100 l 1,4,-1
200 300 m 1,8,-1
 200 900 l 1,9,-1
 100 900 l 1,10,-1
 100 300 l 1,11,-1
 200 300 l 1,8,-1
400 300 m 1,12,-1
 400 900 l 1,13,-1
 300 900 l 1,14,-1
 300 300 l 1,15,-1
 400 300 l 1,12,-1
0 0 m 1,16,-1
 0 1000 l 1,17,-1
 500 1000 l 1,18,-1
 500 0 l 1,19,-1
 0 0 l 1,16,-1
EndSplineSet
EndChar

StartChar: x
Encoding: 120 120 73
Width: 600
Flags: W
LayerCount: 2
Fore
SplineSet
200 200 m 1,0,-1
 200 300 l 1,1,-1
 300 300 l 1,2,-1
 300 200 l 1,3,-1
 200 200 l 1,0,-1
200 700 m 1,4,-1
 200 800 l 1,5,-1
 300 800 l 1,6,-1
 300 700 l 1,7,-1
 200 700 l 1,4,-1
400 100 m 1,8,-1
 400 300 l 1,9,-1
 300 300 l 1,10,-1
 300 400 l 1,11,-1
 400 400 l 1,12,-1
 400 600 l 1,13,-1
 300 600 l 1,14,-1
 300 700 l 1,15,-1
 400 700 l 1,16,-1
 400 900 l 1,17,-1
 200 900 l 1,18,-1
 200 800 l 1,19,-1
 100 800 l 1,20,-1
 100 200 l 1,21,-1
 200 200 l 1,22,-1
 200 100 l 1,23,-1
 400 100 l 1,8,-1
0 0 m 1,24,-1
 0 1000 l 1,25,-1
 500 1000 l 1,26,-1
 500 0 l 1,27,-1
 0 0 l 1,24,-1
EndSplineSet
EndChar

StartChar: y
Encoding: 121 121 74
Width: 600
Flags: W
LayerCount: 2
Fore
SplineSet
300 700 m 1,0,-1
 300 800 l 1,1,-1
 400 800 l 1,2,-1
 400 700 l 1,3,-1
 300 700 l 1,0,-1
0 0 m 1,4,-1
 0 1000 l 1,5,-1
 500 1000 l 1,6,-1
 500 800 l 1,7,-1
 400 800 l 1,8,-1
 400 900 l 1,9,-1
 100 900 l 1,10,-1
 100 800 l 1,11,-1
 200 800 l 1,12,-1
 200 700 l 1,13,-1
 100 700 l 1,14,-1
 100 100 l 1,15,-1
 200 100 l 1,16,-1
 200 700 l 1,17,-1
 300 700 l 1,18,-1
 300 100 l 1,19,-1
 500 100 l 1,20,-1
 500 0 l 1,21,-1
 0 0 l 1,4,-1
EndSplineSet
EndChar

StartChar: z
Encoding: 122 122 75
Width: 600
Flags: W
LayerCount: 2
Fore
SplineSet
200 700 m 1,0,-1
 200 800 l 1,1,-1
 300 800 l 1,2,-1
 300 700 l 1,3,-1
 200 700 l 1,0,-1
400 100 m 1,4,-1
 400 900 l 1,5,-1
 100 900 l 1,6,-1
 100 500 l 1,7,-1
 200 500 l 1,8,-1
 200 600 l 1,9,-1
 300 600 l 1,10,-1
 300 100 l 1,11,-1
 400 100 l 1,4,-1
0 0 m 1,12,-1
 0 100 l 1,13,-1
 200 100 l 1,14,-1
 200 400 l 1,15,-1
 100 400 l 1,16,-1
 100 300 l 1,17,-1
 0 300 l 1,18,-1
 0 1000 l 1,19,-1
 500 1000 l 1,20,-1
 500 0 l 1,21,-1
 0 0 l 1,12,-1
EndSplineSet
EndChar

StartChar: quoteleft
Encoding: 8216 8216 76
Width: 600
Flags: W
LayerCount: 2
Fore
SplineSet
0 0 m 1,0,-1
 0 100 l 1,1,-1
 500 100 l 1,2,-1
 500 0 l 1,3,-1
 0 0 l 1,0,-1
200 600 m 1,4,-1
 200 900 l 1,5,-1
 0 900 l 1,6,-1
 0 1000 l 1,7,-1
 500 1000 l 1,8,-1
 500 900 l 1,9,-1
 300 900 l 1,10,-1
 300 600 l 1,11,-1
 200 600 l 1,4,-1
EndSplineSet
EndChar

StartChar: quoteright
Encoding: 8217 8217 77
Width: 600
Flags: W
LayerCount: 2
Fore
SplineSet
0 0 m 1,0,-1
 0 100 l 1,1,-1
 500 100 l 1,2,-1
 500 0 l 1,3,-1
 0 0 l 1,0,-1
200 600 m 1,4,-1
 200 900 l 1,5,-1
 0 900 l 1,6,-1
 0 1000 l 1,7,-1
 500 1000 l 1,8,-1
 500 900 l 1,9,-1
 300 900 l 1,10,-1
 300 600 l 1,11,-1
 200 600 l 1,4,-1
EndSplineSet
EndChar

StartChar: quotedblleft
Encoding: 8220 8220 78
Width: 600
Flags: W
LayerCount: 2
Fore
SplineSet
0 0 m 1,0,-1
 0 100 l 1,1,-1
 500 100 l 1,2,-1
 500 0 l 1,3,-1
 0 0 l 1,0,-1
200 600 m 1,4,-1
 200 800 l 1,5,-1
 300 800 l 1,6,-1
 300 600 l 1,7,-1
 200 600 l 1,4,-1
100 800 m 1,8,-1
 100 900 l 1,9,-1
 0 900 l 1,10,-1
 0 1000 l 1,11,-1
 500 1000 l 1,12,-1
 500 900 l 1,13,-1
 400 900 l 1,14,-1
 400 800 l 1,15,-1
 300 800 l 1,16,-1
 300 900 l 1,17,-1
 200 900 l 1,18,-1
 200 800 l 1,19,-1
 100 800 l 1,8,-1
EndSplineSet
EndChar

StartChar: quotedblright
Encoding: 8221 8221 79
Width: 600
Flags: W
LayerCount: 2
Fore
SplineSet
0 0 m 1,0,-1
 0 100 l 1,1,-1
 500 100 l 1,2,-1
 500 0 l 1,3,-1
 0 0 l 1,0,-1
200 600 m 1,4,-1
 200 800 l 1,5,-1
 300 800 l 1,6,-1
 300 600 l 1,7,-1
 200 600 l 1,4,-1
100 800 m 1,8,-1
 100 900 l 1,9,-1
 0 900 l 1,10,-1
 0 1000 l 1,11,-1
 500 1000 l 1,12,-1
 500 900 l 1,13,-1
 400 900 l 1,14,-1
 400 800 l 1,15,-1
 300 800 l 1,16,-1
 300 900 l 1,17,-1
 200 900 l 1,18,-1
 200 800 l 1,19,-1
 100 800 l 1,8,-1
EndSplineSet
EndChar
